<?xml version="1.0" standalone="yes"?><svg xmlns="http://www.w3.org/2000/svg" width="1000" height="1000"><circle cx="147" cy="132" r="2" stroke="#99e2ff" stroke-width="1" fill="#ffc2df"/><circle cx="107" cy="132" r="2" stroke="#99e2ff" stroke-width="1" fill="#ffc2df"/><circle cx="107" cy="123" r="2" stroke="#99e2ff" stroke-width="1" fill="#ffc2df"/><circle cx="147" cy="123" r="2" stroke="#99e2ff" stroke-width="1" fill="#ffc2df"/><circle cx="132" cy="147" r="2" stroke="#99e2ff" stroke-width="1" fill="#ffc2df"/><circle cx="122" cy="147" r="2" stroke="#99e2ff" stroke-width="1" fill="#ffc2df"/><circle cx="122" cy="108" r="2" stroke="#99e2ff" stroke-width="1" fill="#ffc2df"/><circle cx="132" cy="108" r="2" stroke="#99e2ff" stroke-width="1" fill="#ffc2df"/><circle cx="132" cy="146" r="2" stroke="#99e2ff" stroke-width="1" fill="#ffc2df"/><circle cx="122" cy="146" r="2" stroke="#99e2ff" stroke-width="1" fill="#ffc2df"/><circle cx="122" cy="109" r="2" stroke="#99e2ff" stroke-width="1" fill="#ffc2df"/><circle cx="132" cy="109" r="2" stroke="#99e2ff" stroke-width="1" fill="#ffc2df"/><circle cx="146" cy="132" r="2" stroke="#99e2ff" stroke-width="1" fill="#ffc2df"/><circle cx="108" cy="132" r="2" stroke="#99e2ff" stroke-width="1" fill="#ffc2df"/><circle cx="108" cy="123" r="2" stroke="#99e2ff" stroke-width="1" fill="#ffc2df"/><circle cx="146" cy="123" r="2" stroke="#99e2ff" stroke-width="1" fill="#ffc2df"/><circle cx="146" cy="137" r="2" stroke="#99e2ff" stroke-width="1" fill="#ffc2df"/><circle cx="108" cy="137" r="2" stroke="#99e2ff" stroke-width="1" fill="#ffc2df"/><circle cx="108" cy="118" r="2" stroke="#99e2ff" stroke-width="1" fill="#ffc2df"/><circle cx="146" cy="118" r="2" stroke="#99e2ff" stroke-width="1" fill="#ffc2df"/><circle cx="137" cy="146" r="2" stroke="#99e2ff" stroke-width="1" fill="#ffc2df"/><circle cx="117" cy="146" r="2" stroke="#99e2ff" stroke-width="1" fill="#ffc2df"/><circle cx="117" cy="109" r="2" stroke="#99e2ff" stroke-width="1" fill="#ffc2df"/><circle cx="137" cy="109" r="2" stroke="#99e2ff" stroke-width="1" fill="#ffc2df"/><circle cx="137" cy="144" r="2" stroke="#99e2ff" stroke-width="1" fill="#ffc2df"/><circle cx="117" cy="144" r="2" stroke="#99e2ff" stroke-width="1" fill="#ffc2df"/><circle cx="117" cy="111" r="2" stroke="#99e2ff" stroke-width="1" fill="#ffc2df"/><circle cx="137" cy="111" r="2" stroke="#99e2ff" stroke-width="1" fill="#ffc2df"/><circle cx="144" cy="137" r="2" stroke="#99e2ff" stroke-width="1" fill="#ffc2df"/><circle cx="110" cy="137" r="2" stroke="#99e2ff" stroke-width="1" fill="#ffc2df"/><circle cx="110" cy="118" r="2" stroke="#99e2ff" stroke-width="1" fill="#ffc2df"/><circle cx="144" cy="118" r="2" stroke="#99e2ff" stroke-width="1" fill="#ffc2df"/><circle cx="144" cy="141" r="2" stroke="#99e2ff" stroke-width="1" fill="#ffc2df"/><circle cx="110" cy="141" r="2" stroke="#99e2ff" stroke-width="1" fill="#ffc2df"/><circle cx="110" cy="114" r="2" stroke="#99e2ff" stroke-width="1" fill="#ffc2df"/><circle cx="144" cy="114" r="2" stroke="#99e2ff" stroke-width="1" fill="#ffc2df"/><circle cx="141" cy="144" r="2" stroke="#99e2ff" stroke-width="1" fill="#ffc2df"/><circle cx="113" cy="144" r="2" stroke="#99e2ff" stroke-width="1" fill="#ffc2df"/><circle cx="113" cy="111" r="2" stroke="#99e2ff" stroke-width="1" fill="#ffc2df"/><circle cx="141" cy="111" r="2" stroke="#99e2ff" stroke-width="1" fill="#ffc2df"/><circle cx="141" cy="141" r="2" stroke="#99e2ff" stroke-width="1" fill="#ffc2df"/><circle cx="113" cy="141" r="2" stroke="#99e2ff" stroke-width="1" fill="#ffc2df"/><circle cx="113" cy="114" r="2" stroke="#99e2ff" stroke-width="1" fill="#ffc2df"/><circle cx="141" cy="114" r="2" stroke="#99e2ff" stroke-width="1" fill="#ffc2df"/><circle cx="141" cy="141" r="2" stroke="#99e2ff" stroke-width="1" fill="#ffc2df"/><circle cx="113" cy="141" r="2" stroke="#99e2ff" stroke-width="1" fill="#ffc2df"/><circle cx="113" cy="114" r="2" stroke="#99e2ff" stroke-width="1" fill="#ffc2df"/><circle cx="141" cy="114" r="2" stroke="#99e2ff" stroke-width="1" fill="#ffc2df"/><circle cx="141" cy="127" r="2" stroke="#99e2ff" stroke-width="1" fill="#ffc2df"/><circle cx="113" cy="127" r="2" stroke="#99e2ff" stroke-width="1" fill="#ffc2df"/><circle cx="113" cy="128" r="2" stroke="#99e2ff" stroke-width="1" fill="#ffc2df"/><circle cx="141" cy="128" r="2" stroke="#99e2ff" stroke-width="1" fill="#ffc2df"/><circle cx="127" cy="141" r="2" stroke="#99e2ff" stroke-width="1" fill="#ffc2df"/><circle cx="127" cy="141" r="2" stroke="#99e2ff" stroke-width="1" fill="#ffc2df"/><circle cx="127" cy="114" r="2" stroke="#99e2ff" stroke-width="1" fill="#ffc2df"/><circle cx="127" cy="114" r="2" stroke="#99e2ff" stroke-width="1" fill="#ffc2df"/><circle cx="127" cy="160" r="2" stroke="#99e2ff" stroke-width="1" fill="#ffc2df"/><circle cx="127" cy="160" r="2" stroke="#99e2ff" stroke-width="1" fill="#ffc2df"/><circle cx="127" cy="95" r="2" stroke="#99e2ff" stroke-width="1" fill="#ffc2df"/><circle cx="127" cy="95" r="2" stroke="#99e2ff" stroke-width="1" fill="#ffc2df"/><circle cx="160" cy="127" r="2" stroke="#99e2ff" stroke-width="1" fill="#ffc2df"/><circle cx="94" cy="127" r="2" stroke="#99e2ff" stroke-width="1" fill="#ffc2df"/><circle cx="94" cy="128" r="2" stroke="#99e2ff" stroke-width="1" fill="#ffc2df"/><circle cx="160" cy="128" r="2" stroke="#99e2ff" stroke-width="1" fill="#ffc2df"/><circle cx="160" cy="135" r="2" stroke="#99e2ff" stroke-width="1" fill="#ffc2df"/><circle cx="94" cy="135" r="2" stroke="#99e2ff" stroke-width="1" fill="#ffc2df"/><circle cx="94" cy="120" r="2" stroke="#99e2ff" stroke-width="1" fill="#ffc2df"/><circle cx="160" cy="120" r="2" stroke="#99e2ff" stroke-width="1" fill="#ffc2df"/><circle cx="135" cy="160" r="2" stroke="#99e2ff" stroke-width="1" fill="#ffc2df"/><circle cx="119" cy="160" r="2" stroke="#99e2ff" stroke-width="1" fill="#ffc2df"/><circle cx="119" cy="95" r="2" stroke="#99e2ff" stroke-width="1" fill="#ffc2df"/><circle cx="135" cy="95" r="2" stroke="#99e2ff" stroke-width="1" fill="#ffc2df"/><circle cx="135" cy="158" r="2" stroke="#99e2ff" stroke-width="1" fill="#ffc2df"/><circle cx="119" cy="158" r="2" stroke="#99e2ff" stroke-width="1" fill="#ffc2df"/><circle cx="119" cy="97" r="2" stroke="#99e2ff" stroke-width="1" fill="#ffc2df"/><circle cx="135" cy="97" r="2" stroke="#99e2ff" stroke-width="1" fill="#ffc2df"/><circle cx="158" cy="135" r="2" stroke="#99e2ff" stroke-width="1" fill="#ffc2df"/><circle cx="96" cy="135" r="2" stroke="#99e2ff" stroke-width="1" fill="#ffc2df"/><circle cx="96" cy="120" r="2" stroke="#99e2ff" stroke-width="1" fill="#ffc2df"/><circle cx="158" cy="120" r="2" stroke="#99e2ff" stroke-width="1" fill="#ffc2df"/><circle cx="158" cy="143" r="2" stroke="#99e2ff" stroke-width="1" fill="#ffc2df"/><circle cx="96" cy="143" r="2" stroke="#99e2ff" stroke-width="1" fill="#ffc2df"/><circle cx="96" cy="112" r="2" stroke="#99e2ff" stroke-width="1" fill="#ffc2df"/><circle cx="158" cy="112" r="2" stroke="#99e2ff" stroke-width="1" fill="#ffc2df"/><circle cx="143" cy="158" r="2" stroke="#99e2ff" stroke-width="1" fill="#ffc2df"/><circle cx="111" cy="158" r="2" stroke="#99e2ff" stroke-width="1" fill="#ffc2df"/><circle cx="111" cy="97" r="2" stroke="#99e2ff" stroke-width="1" fill="#ffc2df"/><circle cx="143" cy="97" r="2" stroke="#99e2ff" stroke-width="1" fill="#ffc2df"/><circle cx="143" cy="155" r="2" stroke="#99e2ff" stroke-width="1" fill="#ffc2df"/><circle cx="111" cy="155" r="2" stroke="#99e2ff" stroke-width="1" fill="#ffc2df"/><circle cx="111" cy="100" r="2" stroke="#99e2ff" stroke-width="1" fill="#ffc2df"/><circle cx="143" cy="100" r="2" stroke="#99e2ff" stroke-width="1" fill="#ffc2df"/><circle cx="155" cy="143" r="2" stroke="#99e2ff" stroke-width="1" fill="#ffc2df"/><circle cx="99" cy="143" r="2" stroke="#99e2ff" stroke-width="1" fill="#ffc2df"/><circle cx="99" cy="112" r="2" stroke="#99e2ff" stroke-width="1" fill="#ffc2df"/><circle cx="155" cy="112" r="2" stroke="#99e2ff" stroke-width="1" fill="#ffc2df"/><circle cx="155" cy="150" r="2" stroke="#99e2ff" stroke-width="1" fill="#ffc2df"/><circle cx="99" cy="150" r="2" stroke="#99e2ff" stroke-width="1" fill="#ffc2df"/><circle cx="99" cy="105" r="2" stroke="#99e2ff" stroke-width="1" fill="#ffc2df"/><circle cx="155" cy="105" r="2" stroke="#99e2ff" stroke-width="1" fill="#ffc2df"/><circle cx="150" cy="155" r="2" stroke="#99e2ff" stroke-width="1" fill="#ffc2df"/><circle cx="104" cy="155" r="2" stroke="#99e2ff" stroke-width="1" fill="#ffc2df"/><circle cx="104" cy="100" r="2" stroke="#99e2ff" stroke-width="1" fill="#ffc2df"/><circle cx="150" cy="100" r="2" stroke="#99e2ff" stroke-width="1" fill="#ffc2df"/><circle cx="150" cy="150" r="2" stroke="#99e2ff" stroke-width="1" fill="#ffc2df"/><circle cx="104" cy="150" r="2" stroke="#99e2ff" stroke-width="1" fill="#ffc2df"/><circle cx="104" cy="105" r="2" stroke="#99e2ff" stroke-width="1" fill="#ffc2df"/><circle cx="150" cy="105" r="2" stroke="#99e2ff" stroke-width="1" fill="#ffc2df"/><circle cx="150" cy="150" r="2" stroke="#99e2ff" stroke-width="1" fill="#ffc2df"/><circle cx="104" cy="150" r="2" stroke="#99e2ff" stroke-width="1" fill="#ffc2df"/><circle cx="104" cy="105" r="2" stroke="#99e2ff" stroke-width="1" fill="#ffc2df"/><circle cx="150" cy="105" r="2" stroke="#99e2ff" stroke-width="1" fill="#ffc2df"/><circle cx="150" cy="127" r="2" stroke="#99e2ff" stroke-width="1" fill="#ffc2df"/><circle cx="104" cy="127" r="2" stroke="#99e2ff" stroke-width="1" fill="#ffc2df"/><circle cx="104" cy="128" r="2" stroke="#99e2ff" stroke-width="1" fill="#ffc2df"/><circle cx="150" cy="128" r="2" stroke="#99e2ff" stroke-width="1" fill="#ffc2df"/><circle cx="127" cy="150" r="2" stroke="#99e2ff" stroke-width="1" fill="#ffc2df"/><circle cx="127" cy="150" r="2" stroke="#99e2ff" stroke-width="1" fill="#ffc2df"/><circle cx="127" cy="105" r="2" stroke="#99e2ff" stroke-width="1" fill="#ffc2df"/><circle cx="127" cy="105" r="2" stroke="#99e2ff" stroke-width="1" fill="#ffc2df"/><circle cx="127" cy="173" r="2" stroke="#99e2ff" stroke-width="1" fill="#ffc2df"/><circle cx="127" cy="173" r="2" stroke="#99e2ff" stroke-width="1" fill="#ffc2df"/><circle cx="127" cy="82" r="2" stroke="#99e2ff" stroke-width="1" fill="#ffc2df"/><circle cx="127" cy="82" r="2" stroke="#99e2ff" stroke-width="1" fill="#ffc2df"/><circle cx="173" cy="127" r="2" stroke="#99e2ff" stroke-width="1" fill="#ffc2df"/><circle cx="81" cy="127" r="2" stroke="#99e2ff" stroke-width="1" fill="#ffc2df"/><circle cx="81" cy="128" r="2" stroke="#99e2ff" stroke-width="1" fill="#ffc2df"/><circle cx="173" cy="128" r="2" stroke="#99e2ff" stroke-width="1" fill="#ffc2df"/><circle cx="173" cy="138" r="2" stroke="#99e2ff" stroke-width="1" fill="#ffc2df"/><circle cx="81" cy="138" r="2" stroke="#99e2ff" stroke-width="1" fill="#ffc2df"/><circle cx="81" cy="117" r="2" stroke="#99e2ff" stroke-width="1" fill="#ffc2df"/><circle cx="173" cy="117" r="2" stroke="#99e2ff" stroke-width="1" fill="#ffc2df"/><circle cx="138" cy="173" r="2" stroke="#99e2ff" stroke-width="1" fill="#ffc2df"/><circle cx="116" cy="173" r="2" stroke="#99e2ff" stroke-width="1" fill="#ffc2df"/><circle cx="116" cy="82" r="2" stroke="#99e2ff" stroke-width="1" fill="#ffc2df"/><circle cx="138" cy="82" r="2" stroke="#99e2ff" stroke-width="1" fill="#ffc2df"/><circle cx="138" cy="171" r="2" stroke="#99e2ff" stroke-width="1" fill="#ffc2df"/><circle cx="116" cy="171" r="2" stroke="#99e2ff" stroke-width="1" fill="#ffc2df"/><circle cx="116" cy="84" r="2" stroke="#99e2ff" stroke-width="1" fill="#ffc2df"/><circle cx="138" cy="84" r="2" stroke="#99e2ff" stroke-width="1" fill="#ffc2df"/><circle cx="171" cy="138" r="2" stroke="#99e2ff" stroke-width="1" fill="#ffc2df"/><circle cx="83" cy="138" r="2" stroke="#99e2ff" stroke-width="1" fill="#ffc2df"/><circle cx="83" cy="117" r="2" stroke="#99e2ff" stroke-width="1" fill="#ffc2df"/><circle cx="171" cy="117" r="2" stroke="#99e2ff" stroke-width="1" fill="#ffc2df"/><circle cx="171" cy="150" r="2" stroke="#99e2ff" stroke-width="1" fill="#ffc2df"/><circle cx="83" cy="150" r="2" stroke="#99e2ff" stroke-width="1" fill="#ffc2df"/><circle cx="83" cy="105" r="2" stroke="#99e2ff" stroke-width="1" fill="#ffc2df"/><circle cx="171" cy="105" r="2" stroke="#99e2ff" stroke-width="1" fill="#ffc2df"/><circle cx="150" cy="171" r="2" stroke="#99e2ff" stroke-width="1" fill="#ffc2df"/><circle cx="104" cy="171" r="2" stroke="#99e2ff" stroke-width="1" fill="#ffc2df"/><circle cx="104" cy="84" r="2" stroke="#99e2ff" stroke-width="1" fill="#ffc2df"/><circle cx="150" cy="84" r="2" stroke="#99e2ff" stroke-width="1" fill="#ffc2df"/><circle cx="150" cy="166" r="2" stroke="#99e2ff" stroke-width="1" fill="#ffc2df"/><circle cx="104" cy="166" r="2" stroke="#99e2ff" stroke-width="1" fill="#ffc2df"/><circle cx="104" cy="89" r="2" stroke="#99e2ff" stroke-width="1" fill="#ffc2df"/><circle cx="150" cy="89" r="2" stroke="#99e2ff" stroke-width="1" fill="#ffc2df"/><circle cx="166" cy="150" r="2" stroke="#99e2ff" stroke-width="1" fill="#ffc2df"/><circle cx="88" cy="150" r="2" stroke="#99e2ff" stroke-width="1" fill="#ffc2df"/><circle cx="88" cy="105" r="2" stroke="#99e2ff" stroke-width="1" fill="#ffc2df"/><circle cx="166" cy="105" r="2" stroke="#99e2ff" stroke-width="1" fill="#ffc2df"/><circle cx="166" cy="159" r="2" stroke="#99e2ff" stroke-width="1" fill="#ffc2df"/><circle cx="88" cy="159" r="2" stroke="#99e2ff" stroke-width="1" fill="#ffc2df"/><circle cx="88" cy="96" r="2" stroke="#99e2ff" stroke-width="1" fill="#ffc2df"/><circle cx="166" cy="96" r="2" stroke="#99e2ff" stroke-width="1" fill="#ffc2df"/><circle cx="159" cy="166" r="2" stroke="#99e2ff" stroke-width="1" fill="#ffc2df"/><circle cx="95" cy="166" r="2" stroke="#99e2ff" stroke-width="1" fill="#ffc2df"/><circle cx="95" cy="89" r="2" stroke="#99e2ff" stroke-width="1" fill="#ffc2df"/><circle cx="159" cy="89" r="2" stroke="#99e2ff" stroke-width="1" fill="#ffc2df"/><circle cx="159" cy="159" r="2" stroke="#99e2ff" stroke-width="1" fill="#ffc2df"/><circle cx="95" cy="159" r="2" stroke="#99e2ff" stroke-width="1" fill="#ffc2df"/><circle cx="95" cy="96" r="2" stroke="#99e2ff" stroke-width="1" fill="#ffc2df"/><circle cx="159" cy="96" r="2" stroke="#99e2ff" stroke-width="1" fill="#ffc2df"/><circle cx="159" cy="159" r="2" stroke="#99e2ff" stroke-width="1" fill="#ffc2df"/><circle cx="95" cy="159" r="2" stroke="#99e2ff" stroke-width="1" fill="#ffc2df"/><circle cx="95" cy="96" r="2" stroke="#99e2ff" stroke-width="1" fill="#ffc2df"/><circle cx="159" cy="96" r="2" stroke="#99e2ff" stroke-width="1" fill="#ffc2df"/><circle cx="159" cy="127" r="2" stroke="#99e2ff" stroke-width="1" fill="#ffc2df"/><circle cx="95" cy="127" r="2" stroke="#99e2ff" stroke-width="1" fill="#ffc2df"/><circle cx="95" cy="128" r="2" stroke="#99e2ff" stroke-width="1" fill="#ffc2df"/><circle cx="159" cy="128" r="2" stroke="#99e2ff" stroke-width="1" fill="#ffc2df"/><circle cx="127" cy="159" r="2" stroke="#99e2ff" stroke-width="1" fill="#ffc2df"/><circle cx="127" cy="159" r="2" stroke="#99e2ff" stroke-width="1" fill="#ffc2df"/><circle cx="127" cy="96" r="2" stroke="#99e2ff" stroke-width="1" fill="#ffc2df"/><circle cx="127" cy="96" r="2" stroke="#99e2ff" stroke-width="1" fill="#ffc2df"/><circle cx="127" cy="186" r="2" stroke="#99e2ff" stroke-width="1" fill="#ffc2df"/><circle cx="127" cy="186" r="2" stroke="#99e2ff" stroke-width="1" fill="#ffc2df"/><circle cx="127" cy="69" r="2" stroke="#99e2ff" stroke-width="1" fill="#ffc2df"/><circle cx="127" cy="69" r="2" stroke="#99e2ff" stroke-width="1" fill="#ffc2df"/><circle cx="186" cy="127" r="2" stroke="#99e2ff" stroke-width="1" fill="#ffc2df"/><circle cx="68" cy="127" r="2" stroke="#99e2ff" stroke-width="1" fill="#ffc2df"/><circle cx="68" cy="128" r="2" stroke="#99e2ff" stroke-width="1" fill="#ffc2df"/><circle cx="186" cy="128" r="2" stroke="#99e2ff" stroke-width="1" fill="#ffc2df"/><circle cx="186" cy="142" r="2" stroke="#99e2ff" stroke-width="1" fill="#ffc2df"/><circle cx="68" cy="142" r="2" stroke="#99e2ff" stroke-width="1" fill="#ffc2df"/><circle cx="68" cy="113" r="2" stroke="#99e2ff" stroke-width="1" fill="#ffc2df"/><circle cx="186" cy="113" r="2" stroke="#99e2ff" stroke-width="1" fill="#ffc2df"/><circle cx="142" cy="186" r="2" stroke="#99e2ff" stroke-width="1" fill="#ffc2df"/><circle cx="112" cy="186" r="2" stroke="#99e2ff" stroke-width="1" fill="#ffc2df"/><circle cx="112" cy="69" r="2" stroke="#99e2ff" stroke-width="1" fill="#ffc2df"/><circle cx="142" cy="69" r="2" stroke="#99e2ff" stroke-width="1" fill="#ffc2df"/><circle cx="142" cy="183" r="2" stroke="#99e2ff" stroke-width="1" fill="#ffc2df"/><circle cx="112" cy="183" r="2" stroke="#99e2ff" stroke-width="1" fill="#ffc2df"/><circle cx="112" cy="72" r="2" stroke="#99e2ff" stroke-width="1" fill="#ffc2df"/><circle cx="142" cy="72" r="2" stroke="#99e2ff" stroke-width="1" fill="#ffc2df"/><circle cx="183" cy="142" r="2" stroke="#99e2ff" stroke-width="1" fill="#ffc2df"/><circle cx="71" cy="142" r="2" stroke="#99e2ff" stroke-width="1" fill="#ffc2df"/><circle cx="71" cy="113" r="2" stroke="#99e2ff" stroke-width="1" fill="#ffc2df"/><circle cx="183" cy="113" r="2" stroke="#99e2ff" stroke-width="1" fill="#ffc2df"/><circle cx="183" cy="156" r="2" stroke="#99e2ff" stroke-width="1" fill="#ffc2df"/><circle cx="71" cy="156" r="2" stroke="#99e2ff" stroke-width="1" fill="#ffc2df"/><circle cx="71" cy="99" r="2" stroke="#99e2ff" stroke-width="1" fill="#ffc2df"/><circle cx="183" cy="99" r="2" stroke="#99e2ff" stroke-width="1" fill="#ffc2df"/><circle cx="156" cy="183" r="2" stroke="#99e2ff" stroke-width="1" fill="#ffc2df"/><circle cx="98" cy="183" r="2" stroke="#99e2ff" stroke-width="1" fill="#ffc2df"/><circle cx="98" cy="72" r="2" stroke="#99e2ff" stroke-width="1" fill="#ffc2df"/><circle cx="156" cy="72" r="2" stroke="#99e2ff" stroke-width="1" fill="#ffc2df"/><circle cx="156" cy="178" r="2" stroke="#99e2ff" stroke-width="1" fill="#ffc2df"/><circle cx="98" cy="178" r="2" stroke="#99e2ff" stroke-width="1" fill="#ffc2df"/><circle cx="98" cy="77" r="2" stroke="#99e2ff" stroke-width="1" fill="#ffc2df"/><circle cx="156" cy="77" r="2" stroke="#99e2ff" stroke-width="1" fill="#ffc2df"/><circle cx="178" cy="156" r="2" stroke="#99e2ff" stroke-width="1" fill="#ffc2df"/><circle cx="76" cy="156" r="2" stroke="#99e2ff" stroke-width="1" fill="#ffc2df"/><circle cx="76" cy="99" r="2" stroke="#99e2ff" stroke-width="1" fill="#ffc2df"/><circle cx="178" cy="99" r="2" stroke="#99e2ff" stroke-width="1" fill="#ffc2df"/><circle cx="178" cy="168" r="2" stroke="#99e2ff" stroke-width="1" fill="#ffc2df"/><circle cx="76" cy="168" r="2" stroke="#99e2ff" stroke-width="1" fill="#ffc2df"/><circle cx="76" cy="87" r="2" stroke="#99e2ff" stroke-width="1" fill="#ffc2df"/><circle cx="178" cy="87" r="2" stroke="#99e2ff" stroke-width="1" fill="#ffc2df"/><circle cx="168" cy="178" r="2" stroke="#99e2ff" stroke-width="1" fill="#ffc2df"/><circle cx="86" cy="178" r="2" stroke="#99e2ff" stroke-width="1" fill="#ffc2df"/><circle cx="86" cy="77" r="2" stroke="#99e2ff" stroke-width="1" fill="#ffc2df"/><circle cx="168" cy="77" r="2" stroke="#99e2ff" stroke-width="1" fill="#ffc2df"/><circle cx="168" cy="168" r="2" stroke="#99e2ff" stroke-width="1" fill="#ffc2df"/><circle cx="86" cy="168" r="2" stroke="#99e2ff" stroke-width="1" fill="#ffc2df"/><circle cx="86" cy="87" r="2" stroke="#99e2ff" stroke-width="1" fill="#ffc2df"/><circle cx="168" cy="87" r="2" stroke="#99e2ff" stroke-width="1" fill="#ffc2df"/><circle cx="168" cy="168" r="2" stroke="#99e2ff" stroke-width="1" fill="#ffc2df"/><circle cx="86" cy="168" r="2" stroke="#99e2ff" stroke-width="1" fill="#ffc2df"/><circle cx="86" cy="87" r="2" stroke="#99e2ff" stroke-width="1" fill="#ffc2df"/><circle cx="168" cy="87" r="2" stroke="#99e2ff" stroke-width="1" fill="#ffc2df"/></svg>