<?xml version="1.0" standalone="yes"?><svg xmlns="http://www.w3.org/2000/svg" width="1000" height="1000"><circle cx="150" cy="170" r="3" stroke="#111111" stroke-width="2" fill="#000000"/><circle cx="150" cy="170" r="3" stroke="#111111" stroke-width="2" fill="#000000"/><circle cx="150" cy="130" r="3" stroke="#111111" stroke-width="2" fill="#000000"/><circle cx="150" cy="130" r="3" stroke="#111111" stroke-width="2" fill="#000000"/><circle cx="170" cy="150" r="3" stroke="#111111" stroke-width="2" fill="#000000"/><circle cx="130" cy="150" r="3" stroke="#111111" stroke-width="2" fill="#000000"/><circle cx="130" cy="150" r="3" stroke="#111111" stroke-width="2" fill="#000000"/><circle cx="170" cy="150" r="3" stroke="#111111" stroke-width="2" fill="#000000"/><circle cx="157" cy="168" r="3" stroke="#dfbef8" stroke-width="2" fill="#dfbef8"/><circle cx="143" cy="168" r="3" stroke="#dfbef8" stroke-width="2" fill="#dfbef8"/><circle cx="143" cy="132" r="3" stroke="#dfbef8" stroke-width="2" fill="#dfbef8"/><circle cx="157" cy="132" r="3" stroke="#dfbef8" stroke-width="2" fill="#dfbef8"/><circle cx="168" cy="157" r="3" stroke="#dfbef8" stroke-width="2" fill="#dfbef8"/><circle cx="132" cy="157" r="3" stroke="#dfbef8" stroke-width="2" fill="#dfbef8"/><circle cx="132" cy="143" r="3" stroke="#dfbef8" stroke-width="2" fill="#dfbef8"/><circle cx="168" cy="143" r="3" stroke="#dfbef8" stroke-width="2" fill="#dfbef8"/><circle cx="164" cy="164" r="3" stroke="#97e8ec" stroke-width="2" fill="#000000"/><circle cx="136" cy="164" r="3" stroke="#97e8ec" stroke-width="2" fill="#000000"/><circle cx="136" cy="136" r="3" stroke="#97e8ec" stroke-width="2" fill="#000000"/><circle cx="164" cy="136" r="3" stroke="#97e8ec" stroke-width="2" fill="#000000"/><circle cx="164" cy="164" r="3" stroke="#97e8ec" stroke-width="2" fill="#000000"/><circle cx="136" cy="164" r="3" stroke="#97e8ec" stroke-width="2" fill="#000000"/><circle cx="136" cy="136" r="3" stroke="#97e8ec" stroke-width="2" fill="#000000"/><circle cx="164" cy="136" r="3" stroke="#97e8ec" stroke-width="2" fill="#000000"/><circle cx="150" cy="186" r="3" stroke="#000000" stroke-width="2" fill="#dfbef8"/><circle cx="150" cy="186" r="3" stroke="#000000" stroke-width="2" fill="#dfbef8"/><circle cx="150" cy="114" r="3" stroke="#000000" stroke-width="2" fill="#dfbef8"/><circle cx="150" cy="114" r="3" stroke="#000000" stroke-width="2" fill="#dfbef8"/><circle cx="186" cy="150" r="3" stroke="#000000" stroke-width="2" fill="#dfbef8"/><circle cx="114" cy="150" r="3" stroke="#000000" stroke-width="2" fill="#dfbef8"/><circle cx="114" cy="150" r="3" stroke="#000000" stroke-width="2" fill="#dfbef8"/><circle cx="186" cy="150" r="3" stroke="#000000" stroke-width="2" fill="#dfbef8"/><circle cx="163" cy="183" r="3" stroke="#99e2ff" stroke-width="2" fill="#dfbef8"/><circle cx="137" cy="183" r="3" stroke="#99e2ff" stroke-width="2" fill="#dfbef8"/><circle cx="137" cy="117" r="3" stroke="#99e2ff" stroke-width="2" fill="#dfbef8"/><circle cx="163" cy="117" r="3" stroke="#99e2ff" stroke-width="2" fill="#dfbef8"/><circle cx="183" cy="163" r="3" stroke="#99e2ff" stroke-width="2" fill="#dfbef8"/><circle cx="117" cy="163" r="3" stroke="#99e2ff" stroke-width="2" fill="#dfbef8"/><circle cx="117" cy="137" r="3" stroke="#99e2ff" stroke-width="2" fill="#dfbef8"/><circle cx="183" cy="137" r="3" stroke="#99e2ff" stroke-width="2" fill="#dfbef8"/><circle cx="175" cy="175" r="3" stroke="#111111" stroke-width="2" fill="#99e2ff"/><circle cx="125" cy="175" r="3" stroke="#111111" stroke-width="2" fill="#99e2ff"/><circle cx="125" cy="125" r="3" stroke="#111111" stroke-width="2" fill="#99e2ff"/><circle cx="175" cy="125" r="3" stroke="#111111" stroke-width="2" fill="#99e2ff"/><circle cx="175" cy="175" r="3" stroke="#111111" stroke-width="2" fill="#99e2ff"/><circle cx="125" cy="175" r="3" stroke="#111111" stroke-width="2" fill="#99e2ff"/><circle cx="125" cy="125" r="3" stroke="#111111" stroke-width="2" fill="#99e2ff"/><circle cx="175" cy="125" r="3" stroke="#111111" stroke-width="2" fill="#99e2ff"/><circle cx="150" cy="202" r="3" stroke="#ffe780" stroke-width="2" fill="#000000"/><circle cx="150" cy="202" r="3" stroke="#ffe780" stroke-width="2" fill="#000000"/><circle cx="150" cy="98" r="3" stroke="#ffe780" stroke-width="2" fill="#000000"/><circle cx="150" cy="98" r="3" stroke="#ffe780" stroke-width="2" fill="#000000"/><circle cx="202" cy="150" r="3" stroke="#ffe780" stroke-width="2" fill="#000000"/><circle cx="98" cy="150" r="3" stroke="#ffe780" stroke-width="2" fill="#000000"/><circle cx="98" cy="150" r="3" stroke="#ffe780" stroke-width="2" fill="#000000"/><circle cx="202" cy="150" r="3" stroke="#ffe780" stroke-width="2" fill="#000000"/><circle cx="186" cy="186" r="3" stroke="#ffe780" stroke-width="2" fill="#99e2ff"/><circle cx="114" cy="186" r="3" stroke="#ffe780" stroke-width="2" fill="#99e2ff"/><circle cx="114" cy="114" r="3" stroke="#ffe780" stroke-width="2" fill="#99e2ff"/><circle cx="186" cy="114" r="3" stroke="#ffe780" stroke-width="2" fill="#99e2ff"/><circle cx="186" cy="186" r="3" stroke="#ffe780" stroke-width="2" fill="#99e2ff"/><circle cx="114" cy="186" r="3" stroke="#ffe780" stroke-width="2" fill="#99e2ff"/><circle cx="114" cy="114" r="3" stroke="#ffe780" stroke-width="2" fill="#99e2ff"/><circle cx="186" cy="114" r="3" stroke="#ffe780" stroke-width="2" fill="#99e2ff"/><circle cx="150" cy="218" r="3" stroke="#ffe780" stroke-width="2" fill="#ffe780"/><circle cx="150" cy="218" r="3" stroke="#ffe780" stroke-width="2" fill="#ffe780"/><circle cx="150" cy="82" r="3" stroke="#ffe780" stroke-width="2" fill="#ffe780"/><circle cx="150" cy="82" r="3" stroke="#ffe780" stroke-width="2" fill="#ffe780"/><circle cx="218" cy="150" r="3" stroke="#ffe780" stroke-width="2" fill="#ffe780"/><circle cx="82" cy="150" r="3" stroke="#ffe780" stroke-width="2" fill="#ffe780"/><circle cx="82" cy="150" r="3" stroke="#ffe780" stroke-width="2" fill="#ffe780"/><circle cx="218" cy="150" r="3" stroke="#ffe780" stroke-width="2" fill="#ffe780"/><circle cx="160" cy="217" r="3" stroke="#000000" stroke-width="2" fill="#111111"/><circle cx="140" cy="217" r="3" stroke="#000000" stroke-width="2" fill="#111111"/><circle cx="140" cy="83" r="3" stroke="#000000" stroke-width="2" fill="#111111"/><circle cx="160" cy="83" r="3" stroke="#000000" stroke-width="2" fill="#111111"/><circle cx="217" cy="160" r="3" stroke="#000000" stroke-width="2" fill="#111111"/><circle cx="83" cy="160" r="3" stroke="#000000" stroke-width="2" fill="#111111"/><circle cx="83" cy="140" r="3" stroke="#000000" stroke-width="2" fill="#111111"/><circle cx="217" cy="140" r="3" stroke="#000000" stroke-width="2" fill="#111111"/><circle cx="171" cy="214" r="3" stroke="#97e8ec" stroke-width="2" fill="#dfbef8"/><circle cx="129" cy="214" r="3" stroke="#97e8ec" stroke-width="2" fill="#dfbef8"/><circle cx="129" cy="86" r="3" stroke="#97e8ec" stroke-width="2" fill="#dfbef8"/><circle cx="171" cy="86" r="3" stroke="#97e8ec" stroke-width="2" fill="#dfbef8"/><circle cx="214" cy="171" r="3" stroke="#97e8ec" stroke-width="2" fill="#dfbef8"/><circle cx="86" cy="171" r="3" stroke="#97e8ec" stroke-width="2" fill="#dfbef8"/><circle cx="86" cy="129" r="3" stroke="#97e8ec" stroke-width="2" fill="#dfbef8"/><circle cx="214" cy="129" r="3" stroke="#97e8ec" stroke-width="2" fill="#dfbef8"/><circle cx="180" cy="210" r="3" stroke="#dfbef8" stroke-width="2" fill="#ffe780"/><circle cx="120" cy="210" r="3" stroke="#dfbef8" stroke-width="2" fill="#ffe780"/><circle cx="120" cy="90" r="3" stroke="#dfbef8" stroke-width="2" fill="#ffe780"/><circle cx="180" cy="90" r="3" stroke="#dfbef8" stroke-width="2" fill="#ffe780"/><circle cx="210" cy="180" r="3" stroke="#dfbef8" stroke-width="2" fill="#ffe780"/><circle cx="90" cy="180" r="3" stroke="#dfbef8" stroke-width="2" fill="#ffe780"/><circle cx="90" cy="120" r="3" stroke="#dfbef8" stroke-width="2" fill="#ffe780"/><circle cx="210" cy="120" r="3" stroke="#dfbef8" stroke-width="2" fill="#ffe780"/><circle cx="189" cy="205" r="3" stroke="#97e8ec" stroke-width="2" fill="#dfbef8"/><circle cx="111" cy="205" r="3" stroke="#97e8ec" stroke-width="2" fill="#dfbef8"/><circle cx="111" cy="95" r="3" stroke="#97e8ec" stroke-width="2" fill="#dfbef8"/><circle cx="189" cy="95" r="3" stroke="#97e8ec" stroke-width="2" fill="#dfbef8"/><circle cx="205" cy="189" r="3" stroke="#97e8ec" stroke-width="2" fill="#dfbef8"/><circle cx="95" cy="189" r="3" stroke="#97e8ec" stroke-width="2" fill="#dfbef8"/><circle cx="95" cy="111" r="3" stroke="#97e8ec" stroke-width="2" fill="#dfbef8"/><circle cx="205" cy="111" r="3" stroke="#97e8ec" stroke-width="2" fill="#dfbef8"/><circle cx="198" cy="198" r="3" stroke="#ffe780" stroke-width="2" fill="#97e8ec"/><circle cx="102" cy="198" r="3" stroke="#ffe780" stroke-width="2" fill="#97e8ec"/><circle cx="102" cy="102" r="3" stroke="#ffe780" stroke-width="2" fill="#97e8ec"/><circle cx="198" cy="102" r="3" stroke="#ffe780" stroke-width="2" fill="#97e8ec"/><circle cx="198" cy="198" r="3" stroke="#ffe780" stroke-width="2" fill="#97e8ec"/><circle cx="102" cy="198" r="3" stroke="#ffe780" stroke-width="2" fill="#97e8ec"/><circle cx="102" cy="102" r="3" stroke="#ffe780" stroke-width="2" fill="#97e8ec"/><circle cx="198" cy="102" r="3" stroke="#ffe780" stroke-width="2" fill="#97e8ec"/><circle cx="150" cy="234" r="3" stroke="#ffe780" stroke-width="2" fill="#dfbef8"/><circle cx="150" cy="234" r="3" stroke="#ffe780" stroke-width="2" fill="#dfbef8"/><circle cx="150" cy="66" r="3" stroke="#ffe780" stroke-width="2" fill="#dfbef8"/><circle cx="150" cy="66" r="3" stroke="#ffe780" stroke-width="2" fill="#dfbef8"/><circle cx="234" cy="150" r="3" stroke="#ffe780" stroke-width="2" fill="#dfbef8"/><circle cx="66" cy="150" r="3" stroke="#ffe780" stroke-width="2" fill="#dfbef8"/><circle cx="66" cy="150" r="3" stroke="#ffe780" stroke-width="2" fill="#dfbef8"/><circle cx="234" cy="150" r="3" stroke="#ffe780" stroke-width="2" fill="#dfbef8"/><circle cx="166" cy="232" r="3" stroke="#97e8ec" stroke-width="2" fill="#ffe780"/><circle cx="134" cy="232" r="3" stroke="#97e8ec" stroke-width="2" fill="#ffe780"/><circle cx="134" cy="68" r="3" stroke="#97e8ec" stroke-width="2" fill="#ffe780"/><circle cx="166" cy="68" r="3" stroke="#97e8ec" stroke-width="2" fill="#ffe780"/><circle cx="232" cy="166" r="3" stroke="#97e8ec" stroke-width="2" fill="#ffe780"/><circle cx="68" cy="166" r="3" stroke="#97e8ec" stroke-width="2" fill="#ffe780"/><circle cx="68" cy="134" r="3" stroke="#97e8ec" stroke-width="2" fill="#ffe780"/><circle cx="232" cy="134" r="3" stroke="#97e8ec" stroke-width="2" fill="#ffe780"/><circle cx="182" cy="227" r="3" stroke="#97e8ec" stroke-width="2" fill="#97e8ec"/><circle cx="118" cy="227" r="3" stroke="#97e8ec" stroke-width="2" fill="#97e8ec"/><circle cx="118" cy="73" r="3" stroke="#97e8ec" stroke-width="2" fill="#97e8ec"/><circle cx="182" cy="73" r="3" stroke="#97e8ec" stroke-width="2" fill="#97e8ec"/><circle cx="227" cy="182" r="3" stroke="#97e8ec" stroke-width="2" fill="#97e8ec"/><circle cx="73" cy="182" r="3" stroke="#97e8ec" stroke-width="2" fill="#97e8ec"/><circle cx="73" cy="118" r="3" stroke="#97e8ec" stroke-width="2" fill="#97e8ec"/><circle cx="227" cy="118" r="3" stroke="#97e8ec" stroke-width="2" fill="#97e8ec"/><circle cx="196" cy="219" r="3" stroke="#99e2ff" stroke-width="2" fill="#000000"/><circle cx="104" cy="219" r="3" stroke="#99e2ff" stroke-width="2" fill="#000000"/><circle cx="104" cy="81" r="3" stroke="#99e2ff" stroke-width="2" fill="#000000"/><circle cx="196" cy="81" r="3" stroke="#99e2ff" stroke-width="2" fill="#000000"/><circle cx="219" cy="196" r="3" stroke="#99e2ff" stroke-width="2" fill="#000000"/><circle cx="81" cy="196" r="3" stroke="#99e2ff" stroke-width="2" fill="#000000"/><circle cx="81" cy="104" r="3" stroke="#99e2ff" stroke-width="2" fill="#000000"/><circle cx="219" cy="104" r="3" stroke="#99e2ff" stroke-width="2" fill="#000000"/><circle cx="209" cy="209" r="3" stroke="#ffe780" stroke-width="2" fill="#000000"/><circle cx="91" cy="209" r="3" stroke="#ffe780" stroke-width="2" fill="#000000"/><circle cx="91" cy="91" r="3" stroke="#ffe780" stroke-width="2" fill="#000000"/><circle cx="209" cy="91" r="3" stroke="#ffe780" stroke-width="2" fill="#000000"/><circle cx="209" cy="209" r="3" stroke="#ffe780" stroke-width="2" fill="#000000"/><circle cx="91" cy="209" r="3" stroke="#ffe780" stroke-width="2" fill="#000000"/><circle cx="91" cy="91" r="3" stroke="#ffe780" stroke-width="2" fill="#000000"/><circle cx="209" cy="91" r="3" stroke="#ffe780" stroke-width="2" fill="#000000"/></svg>