<?xml version="1.0" standalone="yes"?><svg xmlns="http://www.w3.org/2000/svg" width="1000" height="1000"><circle cx="150" cy="100" r="7" stroke="#111111" stroke-width="5" fill="#97e8ec"/><circle cx="150" cy="100" r="7" stroke="#111111" stroke-width="5" fill="#97e8ec"/><circle cx="150" cy="200" r="7" stroke="#111111" stroke-width="5" fill="#97e8ec"/><circle cx="150" cy="200" r="7" stroke="#111111" stroke-width="5" fill="#97e8ec"/><circle cx="150" cy="90" r="7" stroke="#ffe780" stroke-width="5" fill="#99e2ff"/><circle cx="150" cy="90" r="7" stroke="#ffe780" stroke-width="5" fill="#99e2ff"/><circle cx="150" cy="210" r="7" stroke="#ffe780" stroke-width="5" fill="#99e2ff"/><circle cx="150" cy="210" r="7" stroke="#ffe780" stroke-width="5" fill="#99e2ff"/><circle cx="192" cy="107" r="7" stroke="#99e2ff" stroke-width="5" fill="#97e8ec"/><circle cx="108" cy="107" r="7" stroke="#99e2ff" stroke-width="5" fill="#97e8ec"/><circle cx="108" cy="193" r="7" stroke="#99e2ff" stroke-width="5" fill="#97e8ec"/><circle cx="192" cy="193" r="7" stroke="#99e2ff" stroke-width="5" fill="#97e8ec"/><circle cx="150" cy="80" r="7" stroke="#ffc2df" stroke-width="5" fill="#dfbef8"/><circle cx="150" cy="80" r="7" stroke="#ffc2df" stroke-width="5" fill="#dfbef8"/><circle cx="150" cy="220" r="7" stroke="#ffc2df" stroke-width="5" fill="#dfbef8"/><circle cx="150" cy="220" r="7" stroke="#ffc2df" stroke-width="5" fill="#dfbef8"/><circle cx="199" cy="100" r="7" stroke="#ffc2df" stroke-width="5" fill="#111111"/><circle cx="101" cy="100" r="7" stroke="#ffc2df" stroke-width="5" fill="#111111"/><circle cx="101" cy="200" r="7" stroke="#ffc2df" stroke-width="5" fill="#111111"/><circle cx="199" cy="200" r="7" stroke="#ffc2df" stroke-width="5" fill="#111111"/><circle cx="150" cy="70" r="7" stroke="#ffc2df" stroke-width="5" fill="#97e8ec"/><circle cx="150" cy="70" r="7" stroke="#ffc2df" stroke-width="5" fill="#97e8ec"/><circle cx="150" cy="230" r="7" stroke="#ffc2df" stroke-width="5" fill="#97e8ec"/><circle cx="150" cy="230" r="7" stroke="#ffc2df" stroke-width="5" fill="#97e8ec"/><circle cx="190" cy="80" r="7" stroke="#dfbef8" stroke-width="5" fill="#dfbef8"/><circle cx="110" cy="80" r="7" stroke="#dfbef8" stroke-width="5" fill="#dfbef8"/><circle cx="110" cy="220" r="7" stroke="#dfbef8" stroke-width="5" fill="#dfbef8"/><circle cx="190" cy="220" r="7" stroke="#dfbef8" stroke-width="5" fill="#dfbef8"/><circle cx="219" cy="110" r="7" stroke="#97e8ec" stroke-width="5" fill="#dfbef8"/><circle cx="81" cy="110" r="7" stroke="#97e8ec" stroke-width="5" fill="#dfbef8"/><circle cx="81" cy="190" r="7" stroke="#97e8ec" stroke-width="5" fill="#dfbef8"/><circle cx="219" cy="190" r="7" stroke="#97e8ec" stroke-width="5" fill="#dfbef8"/><circle cx="150" cy="60" r="7" stroke="#97e8ec" stroke-width="5" fill="#000000"/><circle cx="150" cy="60" r="7" stroke="#97e8ec" stroke-width="5" fill="#000000"/><circle cx="150" cy="240" r="7" stroke="#97e8ec" stroke-width="5" fill="#000000"/><circle cx="150" cy="240" r="7" stroke="#97e8ec" stroke-width="5" fill="#000000"/><circle cx="213" cy="86" r="7" stroke="#99e2ff" stroke-width="5" fill="#ffc2df"/><circle cx="87" cy="86" r="7" stroke="#99e2ff" stroke-width="5" fill="#ffc2df"/><circle cx="87" cy="214" r="7" stroke="#99e2ff" stroke-width="5" fill="#ffc2df"/><circle cx="213" cy="214" r="7" stroke="#99e2ff" stroke-width="5" fill="#ffc2df"/><circle cx="150" cy="50" r="7" stroke="#dfbef8" stroke-width="5" fill="#111111"/><circle cx="150" cy="50" r="7" stroke="#dfbef8" stroke-width="5" fill="#111111"/><circle cx="150" cy="250" r="7" stroke="#dfbef8" stroke-width="5" fill="#111111"/><circle cx="150" cy="250" r="7" stroke="#dfbef8" stroke-width="5" fill="#111111"/><circle cx="188" cy="57" r="7" stroke="#111111" stroke-width="5" fill="#97e8ec"/><circle cx="112" cy="57" r="7" stroke="#111111" stroke-width="5" fill="#97e8ec"/><circle cx="112" cy="243" r="7" stroke="#111111" stroke-width="5" fill="#97e8ec"/><circle cx="188" cy="243" r="7" stroke="#111111" stroke-width="5" fill="#97e8ec"/><circle cx="220" cy="79" r="7" stroke="#000000" stroke-width="5" fill="#ffe780"/><circle cx="80" cy="79" r="7" stroke="#000000" stroke-width="5" fill="#ffe780"/><circle cx="80" cy="221" r="7" stroke="#000000" stroke-width="5" fill="#ffe780"/><circle cx="220" cy="221" r="7" stroke="#000000" stroke-width="5" fill="#ffe780"/><circle cx="242" cy="111" r="7" stroke="#ffc2df" stroke-width="5" fill="#97e8ec"/><circle cx="58" cy="111" r="7" stroke="#ffc2df" stroke-width="5" fill="#97e8ec"/><circle cx="58" cy="189" r="7" stroke="#ffc2df" stroke-width="5" fill="#97e8ec"/><circle cx="242" cy="189" r="7" stroke="#ffc2df" stroke-width="5" fill="#97e8ec"/><circle cx="150" cy="40" r="7" stroke="#dfbef8" stroke-width="5" fill="#ffc2df"/><circle cx="150" cy="40" r="7" stroke="#dfbef8" stroke-width="5" fill="#ffc2df"/><circle cx="150" cy="260" r="7" stroke="#dfbef8" stroke-width="5" fill="#ffc2df"/><circle cx="150" cy="260" r="7" stroke="#dfbef8" stroke-width="5" fill="#ffc2df"/><circle cx="205" cy="54" r="7" stroke="#111111" stroke-width="5" fill="#97e8ec"/><circle cx="95" cy="54" r="7" stroke="#111111" stroke-width="5" fill="#97e8ec"/><circle cx="95" cy="246" r="7" stroke="#111111" stroke-width="5" fill="#97e8ec"/><circle cx="205" cy="246" r="7" stroke="#111111" stroke-width="5" fill="#97e8ec"/><circle cx="245" cy="95" r="7" stroke="#000000" stroke-width="5" fill="#ffe780"/><circle cx="55" cy="95" r="7" stroke="#000000" stroke-width="5" fill="#ffe780"/><circle cx="55" cy="205" r="7" stroke="#000000" stroke-width="5" fill="#ffe780"/><circle cx="245" cy="205" r="7" stroke="#000000" stroke-width="5" fill="#ffe780"/><circle cx="150" cy="30" r="7" stroke="#ffe780" stroke-width="5" fill="#dfbef8"/><circle cx="150" cy="30" r="7" stroke="#ffe780" stroke-width="5" fill="#dfbef8"/><circle cx="150" cy="270" r="7" stroke="#ffe780" stroke-width="5" fill="#dfbef8"/><circle cx="150" cy="270" r="7" stroke="#ffe780" stroke-width="5" fill="#dfbef8"/><circle cx="234" cy="65" r="7" stroke="#99e2ff" stroke-width="5" fill="#97e8ec"/><circle cx="66" cy="65" r="7" stroke="#99e2ff" stroke-width="5" fill="#97e8ec"/><circle cx="66" cy="235" r="7" stroke="#99e2ff" stroke-width="5" fill="#97e8ec"/><circle cx="234" cy="235" r="7" stroke="#99e2ff" stroke-width="5" fill="#97e8ec"/><circle cx="150" cy="20" r="7" stroke="#000000" stroke-width="5" fill="#dfbef8"/><circle cx="150" cy="20" r="7" stroke="#000000" stroke-width="5" fill="#dfbef8"/><circle cx="150" cy="280" r="7" stroke="#000000" stroke-width="5" fill="#dfbef8"/><circle cx="150" cy="280" r="7" stroke="#000000" stroke-width="5" fill="#dfbef8"/><circle cx="215" cy="37" r="7" stroke="#000000" stroke-width="5" fill="#97e8ec"/><circle cx="85" cy="37" r="7" stroke="#000000" stroke-width="5" fill="#97e8ec"/><circle cx="85" cy="263" r="7" stroke="#000000" stroke-width="5" fill="#97e8ec"/><circle cx="215" cy="263" r="7" stroke="#000000" stroke-width="5" fill="#97e8ec"/><circle cx="262" cy="85" r="7" stroke="#111111" stroke-width="5" fill="#000000"/><circle cx="38" cy="85" r="7" stroke="#111111" stroke-width="5" fill="#000000"/><circle cx="38" cy="215" r="7" stroke="#111111" stroke-width="5" fill="#000000"/><circle cx="262" cy="215" r="7" stroke="#111111" stroke-width="5" fill="#000000"/><circle cx="150" cy="10" r="7" stroke="#111111" stroke-width="5" fill="#99e2ff"/><circle cx="150" cy="10" r="7" stroke="#111111" stroke-width="5" fill="#99e2ff"/><circle cx="150" cy="290" r="7" stroke="#111111" stroke-width="5" fill="#99e2ff"/><circle cx="150" cy="290" r="7" stroke="#111111" stroke-width="5" fill="#99e2ff"/><circle cx="193" cy="16" r="7" stroke="#ffe780" stroke-width="5" fill="#111111"/><circle cx="107" cy="16" r="7" stroke="#ffe780" stroke-width="5" fill="#111111"/><circle cx="107" cy="284" r="7" stroke="#ffe780" stroke-width="5" fill="#111111"/><circle cx="193" cy="284" r="7" stroke="#ffe780" stroke-width="5" fill="#111111"/><circle cx="232" cy="36" r="7" stroke="#000000" stroke-width="5" fill="#99e2ff"/><circle cx="68" cy="36" r="7" stroke="#000000" stroke-width="5" fill="#99e2ff"/><circle cx="68" cy="264" r="7" stroke="#000000" stroke-width="5" fill="#99e2ff"/><circle cx="232" cy="264" r="7" stroke="#000000" stroke-width="5" fill="#99e2ff"/><circle cx="263" cy="67" r="7" stroke="#000000" stroke-width="5" fill="#99e2ff"/><circle cx="37" cy="67" r="7" stroke="#000000" stroke-width="5" fill="#99e2ff"/><circle cx="37" cy="233" r="7" stroke="#000000" stroke-width="5" fill="#99e2ff"/><circle cx="263" cy="233" r="7" stroke="#000000" stroke-width="5" fill="#99e2ff"/><circle cx="283" cy="106" r="7" stroke="#97e8ec" stroke-width="5" fill="#ffe780"/><circle cx="17" cy="106" r="7" stroke="#97e8ec" stroke-width="5" fill="#ffe780"/><circle cx="17" cy="194" r="7" stroke="#97e8ec" stroke-width="5" fill="#ffe780"/><circle cx="283" cy="194" r="7" stroke="#97e8ec" stroke-width="5" fill="#ffe780"/></svg>